<svg width="387" height="116" viewBox="0 0 387 116" fill="none" xmlns="http://www.w3.org/2000/svg">
<rect width="387" height="116" fill="#1F1C1C"/>
<path d="M59.7449 31.1094C60.7075 31.1161 61.6697 31.1228 62.5882 31.1228H71.9329C72.8513 31.1228 73.8134 31.1161 74.7761 31.1094C77.3678 31.0914 79.9633 31.0733 81.72 31.1858C88.1148 31.5954 92.5251 35.4701 93.0922 42.054C93.2266 44.4199 93.2234 47.2699 93.2196 50.6311C93.2188 51.2079 93.2182 51.8009 93.2182 52.4081V61.7528C93.2182 62.36 93.2188 62.952 93.2196 63.5288C93.2234 66.8904 93.2266 69.7409 93.0922 72.1069C92.5251 78.6908 88.1148 82.5657 81.72 82.9751C79.9633 83.0877 77.3678 83.0696 74.7761 83.0516C73.8134 83.0448 72.8513 83.0381 71.9329 83.0381H62.5882C61.6697 83.0381 60.7075 83.0448 59.7449 83.0516C57.1533 83.0696 54.5578 83.0877 52.8011 82.9751C46.4062 82.5657 41.9959 78.6908 41.4289 72.1069C41.2944 69.741 41.2977 66.8909 41.3015 63.5298C41.3022 62.953 41.3029 62.36 41.3029 61.7528V52.4081C41.3029 51.8009 41.3022 51.2089 41.3015 50.6321C41.2977 47.2709 41.2944 44.4199 41.4289 42.054C41.9959 35.4701 46.4062 31.5954 52.8011 31.1858C54.5578 31.0733 57.1533 31.0914 59.7449 31.1094Z" fill="url(#paint0_linear_159_2)"/>
<g filter="url(#filter0_dddddd_159_2)">
<path d="M49.7427 49.6191C49.7427 48.297 50.8146 47.225 52.1369 47.225H68.896C72.2364 47.225 74.9443 49.933 74.9443 53.2735V64.4252C74.9443 65.7474 73.8725 66.8192 72.5502 66.8192H55.7911C52.4507 66.8192 49.7427 64.1113 49.7427 60.7709V49.6191Z" fill="url(#paint1_linear_159_2)"/>
<path d="M52.1371 47.5085H68.8962C72.08 47.5085 74.661 50.0896 74.661 53.2734V64.4251C74.661 65.5908 73.7161 66.5357 72.5504 66.5357H55.7913C52.6074 66.5357 50.0264 63.9547 50.0264 60.7709V49.6191C50.0264 48.4534 50.9714 47.5085 52.1371 47.5085Z" stroke="url(#paint2_linear_159_2)" stroke-width="0.567037"/>
</g>
<g filter="url(#filter1_dddddd_159_2)">
<path d="M76.4565 54.1623C76.4565 53.3473 76.8072 52.5717 77.4191 52.0335L82.2206 47.8096C83.2382 46.9145 84.836 47.637 84.836 48.9922V65.1001C84.836 66.4427 83.2642 67.1697 82.2412 66.3005L77.8335 62.5557C76.9601 61.8136 76.4565 60.7252 76.4565 59.5789V54.1623Z" fill="url(#paint3_linear_159_2)"/>
<path d="M77.6065 52.2464L82.408 48.0225C83.2425 47.2884 84.5527 47.8809 84.5527 48.9922V65.1001C84.5527 66.201 83.2638 66.7972 82.4249 66.0844L78.0173 62.3396C77.2072 61.6513 76.7402 60.6419 76.7402 59.5789V54.1623C76.7402 53.4288 77.0558 52.7308 77.6065 52.2464Z" stroke="url(#paint4_linear_159_2)" stroke-width="0.567037"/>
</g>
<path d="M103.008 60.956C103.008 58.868 103.428 57.044 104.268 55.484C105.132 53.924 106.32 52.724 107.832 51.884C109.368 51.044 111.12 50.624 113.088 50.624C115.608 50.624 117.708 51.284 119.388 52.604C121.092 53.924 122.208 55.784 122.736 58.184H116.184C115.632 56.648 114.564 55.88 112.98 55.88C111.852 55.88 110.952 56.324 110.28 57.212C109.608 58.076 109.272 59.324 109.272 60.956C109.272 62.588 109.608 63.848 110.28 64.736C110.952 65.6 111.852 66.032 112.98 66.032C114.564 66.032 115.632 65.264 116.184 63.728H122.736C122.208 66.08 121.092 67.928 119.388 69.272C117.684 70.616 115.584 71.288 113.088 71.288C111.12 71.288 109.368 70.868 107.832 70.028C106.32 69.188 105.132 67.988 104.268 66.428C103.428 64.868 103.008 63.044 103.008 60.956ZM135.173 71.288C133.205 71.288 131.429 70.868 129.845 70.028C128.285 69.188 127.049 67.988 126.137 66.428C125.249 64.868 124.805 63.044 124.805 60.956C124.805 58.892 125.261 57.08 126.173 55.52C127.085 53.936 128.333 52.724 129.917 51.884C131.501 51.044 133.277 50.624 135.245 50.624C137.213 50.624 138.989 51.044 140.573 51.884C142.157 52.724 143.405 53.936 144.317 55.52C145.229 57.08 145.685 58.892 145.685 60.956C145.685 63.02 145.217 64.844 144.281 66.428C143.369 67.988 142.109 69.188 140.501 70.028C138.917 70.868 137.141 71.288 135.173 71.288ZM135.173 65.96C136.349 65.96 137.345 65.528 138.161 64.664C139.001 63.8 139.421 62.564 139.421 60.956C139.421 59.348 139.013 58.112 138.197 57.248C137.405 56.384 136.421 55.952 135.245 55.952C134.045 55.952 133.049 56.384 132.257 57.248C131.465 58.088 131.069 59.324 131.069 60.956C131.069 62.564 131.453 63.8 132.221 64.664C133.013 65.528 133.997 65.96 135.173 65.96ZM161.191 50.696C163.543 50.696 165.415 51.464 166.807 53C168.223 54.512 168.931 56.6 168.931 59.264V71H162.811V60.092C162.811 58.748 162.463 57.704 161.767 56.96C161.071 56.216 160.135 55.844 158.959 55.844C157.783 55.844 156.847 56.216 156.151 56.96C155.455 57.704 155.107 58.748 155.107 60.092V71H148.951V50.912H155.107V53.576C155.731 52.688 156.571 51.992 157.627 51.488C158.683 50.96 159.871 50.696 161.191 50.696ZM185.449 50.696C187.801 50.696 189.673 51.464 191.065 53C192.481 54.512 193.189 56.6 193.189 59.264V71H187.069V60.092C187.069 58.748 186.721 57.704 186.025 56.96C185.329 56.216 184.393 55.844 183.217 55.844C182.041 55.844 181.105 56.216 180.409 56.96C179.713 57.704 179.365 58.748 179.365 60.092V71H173.209V50.912H179.365V53.576C179.989 52.688 180.829 51.992 181.885 51.488C182.941 50.96 184.129 50.696 185.449 50.696ZM216.402 60.632C216.402 61.208 216.366 61.808 216.294 62.432H202.362C202.458 63.68 202.854 64.64 203.55 65.312C204.27 65.96 205.146 66.284 206.178 66.284C207.714 66.284 208.782 65.636 209.382 64.34H215.934C215.598 65.66 214.986 66.848 214.098 67.904C213.234 68.96 212.142 69.788 210.822 70.388C209.502 70.988 208.026 71.288 206.394 71.288C204.426 71.288 202.674 70.868 201.138 70.028C199.602 69.188 198.402 67.988 197.538 66.428C196.674 64.868 196.242 63.044 196.242 60.956C196.242 58.868 196.662 57.044 197.502 55.484C198.366 53.924 199.566 52.724 201.102 51.884C202.638 51.044 204.402 50.624 206.394 50.624C208.338 50.624 210.066 51.032 211.578 51.848C213.09 52.664 214.266 53.828 215.106 55.34C215.97 56.852 216.402 58.616 216.402 60.632ZM210.102 59.012C210.102 57.956 209.742 57.116 209.022 56.492C208.302 55.868 207.402 55.556 206.322 55.556C205.29 55.556 204.414 55.856 203.694 56.456C202.998 57.056 202.566 57.908 202.398 59.012H210.102ZM218.426 60.956C218.426 58.868 218.846 57.044 219.686 55.484C220.55 53.924 221.738 52.724 223.25 51.884C224.786 51.044 226.538 50.624 228.506 50.624C231.026 50.624 233.126 51.284 234.806 52.604C236.51 53.924 237.626 55.784 238.154 58.184H231.602C231.05 56.648 229.982 55.88 228.398 55.88C227.27 55.88 226.37 56.324 225.698 57.212C225.026 58.076 224.69 59.324 224.69 60.956C224.69 62.588 225.026 63.848 225.698 64.736C226.37 65.6 227.27 66.032 228.398 66.032C229.982 66.032 231.05 65.264 231.602 63.728H238.154C237.626 66.08 236.51 67.928 234.806 69.272C233.102 70.616 231.002 71.288 228.506 71.288C226.538 71.288 224.786 70.868 223.25 70.028C221.738 69.188 220.55 67.988 219.686 66.428C218.846 64.868 218.426 63.044 218.426 60.956ZM252.643 65.78V71H249.511C247.279 71 245.539 70.46 244.291 69.38C243.043 68.276 242.419 66.488 242.419 64.016V56.024H239.971V50.912H242.419V46.016H248.575V50.912H252.607V56.024H248.575V64.088C248.575 64.688 248.719 65.12 249.007 65.384C249.295 65.648 249.775 65.78 250.447 65.78H252.643ZM278.68 71H272.524L262.228 55.412V71H256.072V45.728H262.228L272.524 61.388V45.728H278.68V71ZM295.094 71.252C292.718 71.252 290.534 70.7 288.542 69.596C286.574 68.492 285.002 66.956 283.826 64.988C282.674 62.996 282.098 60.764 282.098 58.292C282.098 55.82 282.674 53.6 283.826 51.632C285.002 49.664 286.574 48.128 288.542 47.024C290.534 45.92 292.718 45.368 295.094 45.368C297.47 45.368 299.642 45.92 301.61 47.024C303.602 48.128 305.162 49.664 306.29 51.632C307.442 53.6 308.018 55.82 308.018 58.292C308.018 60.764 307.442 62.996 306.29 64.988C305.138 66.956 303.578 68.492 301.61 69.596C299.642 70.7 297.47 71.252 295.094 71.252ZM295.094 65.636C297.11 65.636 298.718 64.964 299.918 63.62C301.142 62.276 301.754 60.5 301.754 58.292C301.754 56.06 301.142 54.284 299.918 52.964C298.718 51.62 297.11 50.948 295.094 50.948C293.054 50.948 291.422 51.608 290.198 52.928C288.998 54.248 288.398 56.036 288.398 58.292C288.398 60.524 288.998 62.312 290.198 63.656C291.422 64.976 293.054 65.636 295.094 65.636ZM346.219 45.728L339.631 71H332.179L328.147 54.368L323.971 71H316.519L310.111 45.728H316.699L320.335 64.124L324.835 45.728H331.603L335.923 64.124L339.595 45.728H346.219Z" fill="white"/>
<defs>
<filter id="filter0_dddddd_159_2" x="45.2064" y="45.5239" width="34.2743" height="28.6668" filterUnits="userSpaceOnUse" color-interpolation-filters="sRGB">
<feFlood flood-opacity="0" result="BackgroundImageFix"/>
<feColorMatrix in="SourceAlpha" type="matrix" values="0 0 0 0 0 0 0 0 0 0 0 0 0 0 0 0 0 0 127 0" result="hardAlpha"/>
<feOffset dy="0.155601"/>
<feGaussianBlur stdDeviation="0.057319"/>
<feColorMatrix type="matrix" values="0 0 0 0 0.0509804 0 0 0 0 0.121569 0 0 0 0 0.396078 0 0 0 0.189957 0"/>
<feBlend mode="multiply" in2="BackgroundImageFix" result="effect1_dropShadow_159_2"/>
<feColorMatrix in="SourceAlpha" type="matrix" values="0 0 0 0 0 0 0 0 0 0 0 0 0 0 0 0 0 0 127 0" result="hardAlpha"/>
<feOffset dy="0.305287"/>
<feGaussianBlur stdDeviation="0.127482"/>
<feColorMatrix type="matrix" values="0 0 0 0 0.0509804 0 0 0 0 0.121569 0 0 0 0 0.396078 0 0 0 0.368551 0"/>
<feBlend mode="multiply" in2="effect1_dropShadow_159_2" result="effect2_dropShadow_159_2"/>
<feColorMatrix in="SourceAlpha" type="matrix" values="0 0 0 0 0 0 0 0 0 0 0 0 0 0 0 0 0 0 127 0" result="hardAlpha"/>
<feOffset dy="0.469499"/>
<feGaussianBlur stdDeviation="0.21833"/>
<feColorMatrix type="matrix" values="0 0 0 0 0.0509804 0 0 0 0 0.121569 0 0 0 0 0.396078 0 0 0 0.3 0"/>
<feBlend mode="multiply" in2="effect2_dropShadow_159_2" result="effect3_dropShadow_159_2"/>
<feColorMatrix in="SourceAlpha" type="matrix" values="0 0 0 0 0 0 0 0 0 0 0 0 0 0 0 0 0 0 127 0" result="hardAlpha"/>
<feOffset dy="0.688904"/>
<feGaussianBlur stdDeviation="0.69336"/>
<feColorMatrix type="matrix" values="0 0 0 0 0.0509804 0 0 0 0 0.121569 0 0 0 0 0.396078 0 0 0 0.3 0"/>
<feBlend mode="multiply" in2="effect3_dropShadow_159_2" result="effect4_dropShadow_159_2"/>
<feColorMatrix in="SourceAlpha" type="matrix" values="0 0 0 0 0 0 0 0 0 0 0 0 0 0 0 0 0 0 127 0" result="hardAlpha"/>
<feOffset dy="1.07196"/>
<feGaussianBlur stdDeviation="1.28906"/>
<feColorMatrix type="matrix" values="0 0 0 0 0.0509804 0 0 0 0 0.121569 0 0 0 0 0.396078 0 0 0 0.29 0"/>
<feBlend mode="overlay" in2="effect4_dropShadow_159_2" result="effect5_dropShadow_159_2"/>
<feColorMatrix in="SourceAlpha" type="matrix" values="0 0 0 0 0 0 0 0 0 0 0 0 0 0 0 0 0 0 127 0" result="hardAlpha"/>
<feOffset dy="2.83518"/>
<feGaussianBlur stdDeviation="2.26815"/>
<feColorMatrix type="matrix" values="0 0 0 0 0.0509804 0 0 0 0 0.121569 0 0 0 0 0.396078 0 0 0 0.45 0"/>
<feBlend mode="multiply" in2="effect5_dropShadow_159_2" result="effect6_dropShadow_159_2"/>
<feBlend mode="normal" in="SourceGraphic" in2="effect6_dropShadow_159_2" result="shape"/>
</filter>
<filter id="filter1_dddddd_159_2" x="71.9202" y="45.7129" width="17.4525" height="28.3368" filterUnits="userSpaceOnUse" color-interpolation-filters="sRGB">
<feFlood flood-opacity="0" result="BackgroundImageFix"/>
<feColorMatrix in="SourceAlpha" type="matrix" values="0 0 0 0 0 0 0 0 0 0 0 0 0 0 0 0 0 0 127 0" result="hardAlpha"/>
<feOffset dy="0.155601"/>
<feGaussianBlur stdDeviation="0.057319"/>
<feColorMatrix type="matrix" values="0 0 0 0 0.0509804 0 0 0 0 0.121569 0 0 0 0 0.396078 0 0 0 0.189957 0"/>
<feBlend mode="multiply" in2="BackgroundImageFix" result="effect1_dropShadow_159_2"/>
<feColorMatrix in="SourceAlpha" type="matrix" values="0 0 0 0 0 0 0 0 0 0 0 0 0 0 0 0 0 0 127 0" result="hardAlpha"/>
<feOffset dy="0.305287"/>
<feGaussianBlur stdDeviation="0.127482"/>
<feColorMatrix type="matrix" values="0 0 0 0 0.0509804 0 0 0 0 0.121569 0 0 0 0 0.396078 0 0 0 0.368551 0"/>
<feBlend mode="multiply" in2="effect1_dropShadow_159_2" result="effect2_dropShadow_159_2"/>
<feColorMatrix in="SourceAlpha" type="matrix" values="0 0 0 0 0 0 0 0 0 0 0 0 0 0 0 0 0 0 127 0" result="hardAlpha"/>
<feOffset dy="0.469499"/>
<feGaussianBlur stdDeviation="0.21833"/>
<feColorMatrix type="matrix" values="0 0 0 0 0.0509804 0 0 0 0 0.121569 0 0 0 0 0.396078 0 0 0 0.3 0"/>
<feBlend mode="multiply" in2="effect2_dropShadow_159_2" result="effect3_dropShadow_159_2"/>
<feColorMatrix in="SourceAlpha" type="matrix" values="0 0 0 0 0 0 0 0 0 0 0 0 0 0 0 0 0 0 127 0" result="hardAlpha"/>
<feOffset dy="0.688904"/>
<feGaussianBlur stdDeviation="0.69336"/>
<feColorMatrix type="matrix" values="0 0 0 0 0.0509804 0 0 0 0 0.121569 0 0 0 0 0.396078 0 0 0 0.3 0"/>
<feBlend mode="multiply" in2="effect3_dropShadow_159_2" result="effect4_dropShadow_159_2"/>
<feColorMatrix in="SourceAlpha" type="matrix" values="0 0 0 0 0 0 0 0 0 0 0 0 0 0 0 0 0 0 127 0" result="hardAlpha"/>
<feOffset dy="1.07196"/>
<feGaussianBlur stdDeviation="1.28906"/>
<feColorMatrix type="matrix" values="0 0 0 0 0.0509804 0 0 0 0 0.121569 0 0 0 0 0.396078 0 0 0 0.29 0"/>
<feBlend mode="overlay" in2="effect4_dropShadow_159_2" result="effect5_dropShadow_159_2"/>
<feColorMatrix in="SourceAlpha" type="matrix" values="0 0 0 0 0 0 0 0 0 0 0 0 0 0 0 0 0 0 127 0" result="hardAlpha"/>
<feOffset dy="2.83518"/>
<feGaussianBlur stdDeviation="2.26815"/>
<feColorMatrix type="matrix" values="0 0 0 0 0.0509804 0 0 0 0 0.121569 0 0 0 0 0.396078 0 0 0 0.45 0"/>
<feBlend mode="multiply" in2="effect5_dropShadow_159_2" result="effect6_dropShadow_159_2"/>
<feBlend mode="normal" in="SourceGraphic" in2="effect6_dropShadow_159_2" result="shape"/>
</filter>
<linearGradient id="paint0_linear_159_2" x1="67.2605" y1="31.096" x2="67.2605" y2="83.0649" gradientUnits="userSpaceOnUse">
<stop stop-color="#A4C1FF"/>
<stop offset="1" stop-color="#0E78F9"/>
</linearGradient>
<linearGradient id="paint1_linear_159_2" x1="62.3436" y1="47.225" x2="62.3436" y2="66.8192" gradientUnits="userSpaceOnUse">
<stop stop-color="white"/>
<stop offset="1" stop-color="#C5D4F7"/>
</linearGradient>
<linearGradient id="paint2_linear_159_2" x1="62.3437" y1="47.225" x2="62.3437" y2="66.8192" gradientUnits="userSpaceOnUse">
<stop stop-color="white"/>
<stop offset="1" stop-color="#637ACA"/>
</linearGradient>
<linearGradient id="paint3_linear_159_2" x1="80.6464" y1="47.4141" x2="80.6464" y2="66.6783" gradientUnits="userSpaceOnUse">
<stop stop-color="white"/>
<stop offset="1" stop-color="#C5D4F7"/>
</linearGradient>
<linearGradient id="paint4_linear_159_2" x1="80.6465" y1="47.4141" x2="80.6465" y2="66.6782" gradientUnits="userSpaceOnUse">
<stop stop-color="white"/>
<stop offset="1" stop-color="#637ACA"/>
</linearGradient>
</defs>
</svg>
